<mxfile host="app.diagrams.net" modified="2024-05-30T14:04:27.058Z" agent="Mozilla/5.0 (Windows NT 10.0; Win64; x64) AppleWebKit/537.36 (KHTML, like Gecko) Chrome/122.0.0.0 YaBrowser/24.4.0.0 Safari/537.36" etag="Z9Aol0zGlw8XhaZHa4-7" version="22.1.17" type="device">
  <diagram name="Страница — 1" id="v183EFJ7eAloO63CMou5">
    <mxGraphModel dx="2074" dy="2320" grid="0" gridSize="10" guides="1" tooltips="1" connect="1" arrows="1" fold="1" page="1" pageScale="1" pageWidth="827" pageHeight="1169" math="0" shadow="0">
      <root>
        <mxCell id="0" />
        <mxCell id="1" parent="0" />
        <mxCell id="d0DAwnYySHNyLZebtg_5-1" value="&lt;font style=&quot;font-size: 18px;&quot;&gt;App&amp;nbsp;&lt;/font&gt;&lt;div&gt;&lt;span style=&quot;background-color: initial;&quot;&gt;&lt;font size=&quot;3&quot;&gt;Load Balancer&lt;/font&gt;&lt;/span&gt;&lt;br&gt;&lt;/div&gt;" style="rounded=1;whiteSpace=wrap;html=1;" parent="1" vertex="1">
          <mxGeometry x="166.25" y="271" width="120" height="60" as="geometry" />
        </mxCell>
        <mxCell id="d0DAwnYySHNyLZebtg_5-2" value="" style="rounded=0;whiteSpace=wrap;html=1;dashed=1;dashPattern=8 8;" parent="1" vertex="1">
          <mxGeometry x="34" y="404" width="384.5" height="113" as="geometry" />
        </mxCell>
        <mxCell id="d0DAwnYySHNyLZebtg_5-53" value="&lt;font style=&quot;font-size: 18px;&quot;&gt;Scaling deployment&lt;/font&gt;" style="text;html=1;align=center;verticalAlign=middle;whiteSpace=wrap;rounded=0;" parent="1" vertex="1">
          <mxGeometry x="148.38" y="489" width="167.75" height="30" as="geometry" />
        </mxCell>
        <mxCell id="d0DAwnYySHNyLZebtg_5-5" value="&lt;font style=&quot;font-size: 18px;&quot;&gt;App&lt;/font&gt;" style="whiteSpace=wrap;html=1;aspect=fixed;" parent="1" vertex="1">
          <mxGeometry x="116.25" y="435.5" width="50" height="50" as="geometry" />
        </mxCell>
        <mxCell id="d0DAwnYySHNyLZebtg_5-6" value="&lt;font style=&quot;font-size: 18px;&quot;&gt;App&lt;/font&gt;" style="whiteSpace=wrap;html=1;aspect=fixed;" parent="1" vertex="1">
          <mxGeometry x="286.25" y="435.5" width="50" height="50" as="geometry" />
        </mxCell>
        <mxCell id="d0DAwnYySHNyLZebtg_5-9" value="" style="endArrow=classic;html=1;rounded=0;exitX=0;exitY=1;exitDx=0;exitDy=0;entryX=0.5;entryY=0;entryDx=0;entryDy=0;fillColor=#d5e8d4;strokeColor=#82b366;" parent="1" source="d0DAwnYySHNyLZebtg_5-1" target="d0DAwnYySHNyLZebtg_5-5" edge="1">
          <mxGeometry width="50" height="50" relative="1" as="geometry">
            <mxPoint x="-2.75" y="596" as="sourcePoint" />
            <mxPoint x="47.25" y="546" as="targetPoint" />
          </mxGeometry>
        </mxCell>
        <mxCell id="d0DAwnYySHNyLZebtg_5-11" value="" style="endArrow=classic;html=1;rounded=0;exitX=1;exitY=1;exitDx=0;exitDy=0;entryX=0.5;entryY=0;entryDx=0;entryDy=0;fillColor=#d5e8d4;strokeColor=#82b366;" parent="1" source="d0DAwnYySHNyLZebtg_5-1" target="d0DAwnYySHNyLZebtg_5-6" edge="1">
          <mxGeometry width="50" height="50" relative="1" as="geometry">
            <mxPoint x="328.25" y="362" as="sourcePoint" />
            <mxPoint x="378.25" y="312" as="targetPoint" />
          </mxGeometry>
        </mxCell>
        <mxCell id="d0DAwnYySHNyLZebtg_5-12" value="&lt;span style=&quot;background-color: rgb(255, 255, 255);&quot;&gt;&lt;font style=&quot;font-size: 18px;&quot;&gt;Data Base&lt;/font&gt;&lt;/span&gt;" style="rounded=1;whiteSpace=wrap;html=1;" parent="1" vertex="1">
          <mxGeometry x="166.25" y="622" width="120" height="60" as="geometry" />
        </mxCell>
        <mxCell id="d0DAwnYySHNyLZebtg_5-13" value="" style="endArrow=classic;html=1;rounded=0;exitX=0.5;exitY=1;exitDx=0;exitDy=0;entryX=0.5;entryY=0;entryDx=0;entryDy=0;fillColor=#d5e8d4;strokeColor=#82b366;" parent="1" source="d0DAwnYySHNyLZebtg_5-5" target="d0DAwnYySHNyLZebtg_5-12" edge="1">
          <mxGeometry width="50" height="50" relative="1" as="geometry">
            <mxPoint x="-2.75" y="596" as="sourcePoint" />
            <mxPoint x="47.25" y="546" as="targetPoint" />
          </mxGeometry>
        </mxCell>
        <mxCell id="d0DAwnYySHNyLZebtg_5-15" value="" style="endArrow=classic;html=1;rounded=0;entryX=0.5;entryY=0;entryDx=0;entryDy=0;exitX=0.5;exitY=1;exitDx=0;exitDy=0;fillColor=#d5e8d4;strokeColor=#82b366;" parent="1" source="d0DAwnYySHNyLZebtg_5-6" target="d0DAwnYySHNyLZebtg_5-12" edge="1">
          <mxGeometry width="50" height="50" relative="1" as="geometry">
            <mxPoint x="213.25" y="640" as="sourcePoint" />
            <mxPoint x="263.25" y="590" as="targetPoint" />
          </mxGeometry>
        </mxCell>
        <mxCell id="d0DAwnYySHNyLZebtg_5-35" value="&lt;font style=&quot;font-size: 18px;&quot;&gt;Data senders&lt;/font&gt;" style="ellipse;shape=cloud;whiteSpace=wrap;html=1;" parent="1" vertex="1">
          <mxGeometry x="130.25" y="49" width="188" height="127" as="geometry" />
        </mxCell>
        <mxCell id="d0DAwnYySHNyLZebtg_5-38" value="" style="shape=flexArrow;endArrow=classic;html=1;rounded=0;entryX=0.5;entryY=0;entryDx=0;entryDy=0;exitX=0.511;exitY=0.945;exitDx=0;exitDy=0;exitPerimeter=0;fillColor=#d5e8d4;strokeColor=#82b366;" parent="1" source="d0DAwnYySHNyLZebtg_5-35" target="d0DAwnYySHNyLZebtg_5-1" edge="1">
          <mxGeometry width="50" height="50" relative="1" as="geometry">
            <mxPoint x="7.25" y="277" as="sourcePoint" />
            <mxPoint x="57.25" y="227" as="targetPoint" />
          </mxGeometry>
        </mxCell>
        <mxCell id="d0DAwnYySHNyLZebtg_5-39" value="" style="rounded=0;whiteSpace=wrap;html=1;fillColor=#d5e8d4;strokeColor=#82b366;" parent="1" vertex="1">
          <mxGeometry x="251.25" y="778.5" width="63" height="27" as="geometry" />
        </mxCell>
        <mxCell id="d0DAwnYySHNyLZebtg_5-43" value="&lt;font style=&quot;font-size: 18px;&quot;&gt;Получение данных от источников&lt;/font&gt;" style="text;html=1;align=center;verticalAlign=middle;whiteSpace=wrap;rounded=0;" parent="1" vertex="1">
          <mxGeometry x="374.13" y="777" width="294.75" height="30" as="geometry" />
        </mxCell>
        <mxCell id="d0DAwnYySHNyLZebtg_5-47" value="" style="endArrow=none;html=1;rounded=0;" parent="1" edge="1">
          <mxGeometry width="50" height="50" relative="1" as="geometry">
            <mxPoint x="329.25" y="791.5" as="sourcePoint" />
            <mxPoint x="361.25" y="791.5" as="targetPoint" />
          </mxGeometry>
        </mxCell>
        <mxCell id="OdhgJN6pERIXuFP964hx-1" value="&lt;font style=&quot;font-size: 18px;&quot;&gt;Низкая нагрузка&lt;/font&gt;" style="text;html=1;align=center;verticalAlign=middle;resizable=0;points=[];autosize=1;strokeColor=none;fillColor=none;" parent="1" vertex="1">
          <mxGeometry x="155.25" y="7" width="154" height="34" as="geometry" />
        </mxCell>
        <mxCell id="OdhgJN6pERIXuFP964hx-2" value="&lt;font style=&quot;font-size: 18px;&quot;&gt;App&amp;nbsp;&lt;/font&gt;&lt;div&gt;&lt;span style=&quot;background-color: initial;&quot;&gt;&lt;font size=&quot;3&quot;&gt;Load Balancer&lt;/font&gt;&lt;/span&gt;&lt;br&gt;&lt;/div&gt;" style="rounded=1;whiteSpace=wrap;html=1;" parent="1" vertex="1">
          <mxGeometry x="690.25" y="277" width="120" height="60" as="geometry" />
        </mxCell>
        <mxCell id="OdhgJN6pERIXuFP964hx-3" value="" style="rounded=0;whiteSpace=wrap;html=1;dashed=1;dashPattern=8 8;" parent="1" vertex="1">
          <mxGeometry x="558" y="410" width="384.5" height="113" as="geometry" />
        </mxCell>
        <mxCell id="OdhgJN6pERIXuFP964hx-4" value="&lt;font style=&quot;font-size: 18px;&quot;&gt;Scaling deployment&lt;/font&gt;" style="text;html=1;align=center;verticalAlign=middle;whiteSpace=wrap;rounded=0;" parent="1" vertex="1">
          <mxGeometry x="668.88" y="495" width="162.75" height="30" as="geometry" />
        </mxCell>
        <mxCell id="OdhgJN6pERIXuFP964hx-5" value="&lt;font style=&quot;font-size: 18px;&quot;&gt;App&lt;/font&gt;" style="whiteSpace=wrap;html=1;aspect=fixed;" parent="1" vertex="1">
          <mxGeometry x="725.25" y="441.5" width="50" height="50" as="geometry" />
        </mxCell>
        <mxCell id="OdhgJN6pERIXuFP964hx-6" value="&lt;font style=&quot;font-size: 18px;&quot;&gt;App&lt;/font&gt;" style="whiteSpace=wrap;html=1;aspect=fixed;" parent="1" vertex="1">
          <mxGeometry x="577.25" y="441.5" width="50" height="50" as="geometry" />
        </mxCell>
        <mxCell id="OdhgJN6pERIXuFP964hx-7" value="&lt;font style=&quot;font-size: 18px;&quot;&gt;App&lt;/font&gt;" style="whiteSpace=wrap;html=1;aspect=fixed;" parent="1" vertex="1">
          <mxGeometry x="871.25" y="441.5" width="50" height="50" as="geometry" />
        </mxCell>
        <mxCell id="OdhgJN6pERIXuFP964hx-8" value="" style="endArrow=classic;html=1;rounded=0;exitX=0;exitY=1;exitDx=0;exitDy=0;entryX=0.5;entryY=0;entryDx=0;entryDy=0;fillColor=#d5e8d4;strokeColor=#82b366;" parent="1" source="OdhgJN6pERIXuFP964hx-2" target="OdhgJN6pERIXuFP964hx-6" edge="1">
          <mxGeometry width="50" height="50" relative="1" as="geometry">
            <mxPoint x="521.25" y="602" as="sourcePoint" />
            <mxPoint x="571.25" y="552" as="targetPoint" />
          </mxGeometry>
        </mxCell>
        <mxCell id="OdhgJN6pERIXuFP964hx-9" value="" style="endArrow=classic;html=1;rounded=0;exitX=0.5;exitY=1;exitDx=0;exitDy=0;entryX=0.5;entryY=0;entryDx=0;entryDy=0;fillColor=#d5e8d4;strokeColor=#82b366;" parent="1" source="OdhgJN6pERIXuFP964hx-2" target="OdhgJN6pERIXuFP964hx-5" edge="1">
          <mxGeometry width="50" height="50" relative="1" as="geometry">
            <mxPoint x="521.25" y="602" as="sourcePoint" />
            <mxPoint x="571.25" y="552" as="targetPoint" />
          </mxGeometry>
        </mxCell>
        <mxCell id="OdhgJN6pERIXuFP964hx-10" value="" style="endArrow=classic;html=1;rounded=0;exitX=1;exitY=1;exitDx=0;exitDy=0;entryX=0.5;entryY=0;entryDx=0;entryDy=0;fillColor=#d5e8d4;strokeColor=#82b366;" parent="1" source="OdhgJN6pERIXuFP964hx-2" target="OdhgJN6pERIXuFP964hx-7" edge="1">
          <mxGeometry width="50" height="50" relative="1" as="geometry">
            <mxPoint x="852.25" y="368" as="sourcePoint" />
            <mxPoint x="902.25" y="318" as="targetPoint" />
          </mxGeometry>
        </mxCell>
        <mxCell id="OdhgJN6pERIXuFP964hx-11" value="&lt;span style=&quot;background-color: rgb(255, 255, 255);&quot;&gt;&lt;font style=&quot;font-size: 18px;&quot;&gt;Data Base&lt;/font&gt;&lt;/span&gt;" style="rounded=1;whiteSpace=wrap;html=1;" parent="1" vertex="1">
          <mxGeometry x="690.25" y="628" width="120" height="60" as="geometry" />
        </mxCell>
        <mxCell id="OdhgJN6pERIXuFP964hx-12" value="" style="endArrow=classic;html=1;rounded=0;exitX=0.5;exitY=1;exitDx=0;exitDy=0;entryX=0.5;entryY=0;entryDx=0;entryDy=0;fillColor=#d5e8d4;strokeColor=#82b366;" parent="1" source="OdhgJN6pERIXuFP964hx-6" target="OdhgJN6pERIXuFP964hx-11" edge="1">
          <mxGeometry width="50" height="50" relative="1" as="geometry">
            <mxPoint x="521.25" y="602" as="sourcePoint" />
            <mxPoint x="571.25" y="552" as="targetPoint" />
          </mxGeometry>
        </mxCell>
        <mxCell id="OdhgJN6pERIXuFP964hx-13" value="" style="endArrow=classic;html=1;rounded=0;entryX=0.5;entryY=0;entryDx=0;entryDy=0;exitX=0.5;exitY=1;exitDx=0;exitDy=0;fillColor=#d5e8d4;strokeColor=#82b366;" parent="1" source="OdhgJN6pERIXuFP964hx-5" target="OdhgJN6pERIXuFP964hx-11" edge="1">
          <mxGeometry width="50" height="50" relative="1" as="geometry">
            <mxPoint x="521.25" y="602" as="sourcePoint" />
            <mxPoint x="571.25" y="552" as="targetPoint" />
          </mxGeometry>
        </mxCell>
        <mxCell id="OdhgJN6pERIXuFP964hx-14" value="" style="endArrow=classic;html=1;rounded=0;entryX=0.5;entryY=0;entryDx=0;entryDy=0;exitX=0.5;exitY=1;exitDx=0;exitDy=0;fillColor=#d5e8d4;strokeColor=#82b366;" parent="1" source="OdhgJN6pERIXuFP964hx-7" target="OdhgJN6pERIXuFP964hx-11" edge="1">
          <mxGeometry width="50" height="50" relative="1" as="geometry">
            <mxPoint x="737.25" y="646" as="sourcePoint" />
            <mxPoint x="787.25" y="596" as="targetPoint" />
          </mxGeometry>
        </mxCell>
        <mxCell id="OdhgJN6pERIXuFP964hx-15" value="&lt;font style=&quot;font-size: 18px;&quot;&gt;Data senders&lt;/font&gt;" style="ellipse;shape=cloud;whiteSpace=wrap;html=1;" parent="1" vertex="1">
          <mxGeometry x="654.25" y="55" width="188" height="127" as="geometry" />
        </mxCell>
        <mxCell id="OdhgJN6pERIXuFP964hx-16" value="" style="shape=flexArrow;endArrow=classic;html=1;rounded=0;entryX=0.5;entryY=0;entryDx=0;entryDy=0;exitX=0.511;exitY=0.945;exitDx=0;exitDy=0;exitPerimeter=0;fillColor=#d5e8d4;strokeColor=#82b366;" parent="1" source="OdhgJN6pERIXuFP964hx-15" target="OdhgJN6pERIXuFP964hx-2" edge="1">
          <mxGeometry width="50" height="50" relative="1" as="geometry">
            <mxPoint x="531.25" y="283" as="sourcePoint" />
            <mxPoint x="581.25" y="233" as="targetPoint" />
          </mxGeometry>
        </mxCell>
        <mxCell id="OdhgJN6pERIXuFP964hx-17" value="&lt;font style=&quot;font-size: 18px;&quot;&gt;App&lt;/font&gt;" style="whiteSpace=wrap;html=1;aspect=fixed;" parent="1" vertex="1">
          <mxGeometry x="651" y="441.5" width="50" height="50" as="geometry" />
        </mxCell>
        <mxCell id="OdhgJN6pERIXuFP964hx-18" value="&lt;font style=&quot;font-size: 18px;&quot;&gt;App&lt;/font&gt;" style="whiteSpace=wrap;html=1;aspect=fixed;" parent="1" vertex="1">
          <mxGeometry x="798" y="441.5" width="50" height="50" as="geometry" />
        </mxCell>
        <mxCell id="OdhgJN6pERIXuFP964hx-19" value="" style="endArrow=classic;html=1;rounded=0;exitX=0.25;exitY=1;exitDx=0;exitDy=0;entryX=0.5;entryY=0;entryDx=0;entryDy=0;fillColor=#d5e8d4;strokeColor=#82b366;" parent="1" source="OdhgJN6pERIXuFP964hx-2" target="OdhgJN6pERIXuFP964hx-17" edge="1">
          <mxGeometry width="50" height="50" relative="1" as="geometry">
            <mxPoint x="760" y="347" as="sourcePoint" />
            <mxPoint x="760" y="452" as="targetPoint" />
          </mxGeometry>
        </mxCell>
        <mxCell id="OdhgJN6pERIXuFP964hx-20" value="" style="endArrow=classic;html=1;rounded=0;exitX=0.75;exitY=1;exitDx=0;exitDy=0;entryX=0.5;entryY=0;entryDx=0;entryDy=0;fillColor=#d5e8d4;strokeColor=#82b366;" parent="1" source="OdhgJN6pERIXuFP964hx-2" target="OdhgJN6pERIXuFP964hx-18" edge="1">
          <mxGeometry width="50" height="50" relative="1" as="geometry">
            <mxPoint x="803" y="352" as="sourcePoint" />
            <mxPoint x="759" y="457" as="targetPoint" />
          </mxGeometry>
        </mxCell>
        <mxCell id="OdhgJN6pERIXuFP964hx-21" value="" style="endArrow=classic;html=1;rounded=0;exitX=0.5;exitY=1;exitDx=0;exitDy=0;entryX=0.5;entryY=0;entryDx=0;entryDy=0;fillColor=#d5e8d4;strokeColor=#82b366;" parent="1" source="OdhgJN6pERIXuFP964hx-17" target="OdhgJN6pERIXuFP964hx-11" edge="1">
          <mxGeometry width="50" height="50" relative="1" as="geometry">
            <mxPoint x="612" y="502" as="sourcePoint" />
            <mxPoint x="760" y="638" as="targetPoint" />
          </mxGeometry>
        </mxCell>
        <mxCell id="OdhgJN6pERIXuFP964hx-22" value="&lt;font style=&quot;font-size: 18px;&quot;&gt;Высокая нагрузка&lt;/font&gt;" style="text;html=1;align=center;verticalAlign=middle;resizable=0;points=[];autosize=1;strokeColor=none;fillColor=none;" parent="1" vertex="1">
          <mxGeometry x="676" y="16" width="167" height="34" as="geometry" />
        </mxCell>
        <mxCell id="OdhgJN6pERIXuFP964hx-23" value="" style="endArrow=classic;html=1;rounded=0;entryX=0.5;entryY=0;entryDx=0;entryDy=0;exitX=0.5;exitY=1;exitDx=0;exitDy=0;fillColor=#d5e8d4;strokeColor=#82b366;" parent="1" source="OdhgJN6pERIXuFP964hx-18" target="OdhgJN6pERIXuFP964hx-11" edge="1">
          <mxGeometry width="50" height="50" relative="1" as="geometry">
            <mxPoint x="906" y="502" as="sourcePoint" />
            <mxPoint x="760" y="638" as="targetPoint" />
          </mxGeometry>
        </mxCell>
        <mxCell id="OdhgJN6pERIXuFP964hx-24" value="" style="endArrow=none;dashed=1;html=1;dashPattern=1 3;strokeWidth=2;rounded=0;" parent="1" edge="1">
          <mxGeometry width="50" height="50" relative="1" as="geometry">
            <mxPoint x="491" y="725" as="sourcePoint" />
            <mxPoint x="495" y="-22" as="targetPoint" />
          </mxGeometry>
        </mxCell>
      </root>
    </mxGraphModel>
  </diagram>
</mxfile>
